<svg width="85" height="85" viewBox="0 0 85 85" fill="none" xmlns="http://www.w3.org/2000/svg">
<g clip-path="url(#clip0_76_121)">
<path d="M77.0314 39.8438C77.0314 39.0557 76.7977 38.2854 76.3599 37.6302C75.9221 36.9749 75.2998 36.4642 74.5718 36.1627C73.8437 35.8611 73.0426 35.7822 72.2697 35.9359C71.4968 36.0897 70.7868 36.4691 70.2296 37.0264C69.6724 37.5836 69.2929 38.2935 69.1392 39.0664C68.9854 39.8393 69.0644 40.6405 69.3659 41.3685C69.6675 42.0966 70.1782 42.7188 70.8334 43.1566C71.4886 43.5944 72.259 43.8281 73.047 43.8281C74.1037 43.8281 75.1172 43.4083 75.8644 42.6611C76.6116 41.9139 77.0314 40.9005 77.0314 39.8438ZM71.7189 39.8438C71.7189 39.5811 71.7968 39.3243 71.9427 39.1059C72.0886 38.8875 72.2961 38.7172 72.5388 38.6167C72.7814 38.5162 73.0485 38.4899 73.3061 38.5411C73.5637 38.5924 73.8004 38.7189 73.9861 38.9046C74.1719 39.0904 74.2984 39.327 74.3496 39.5846C74.4009 39.8423 74.3745 40.1093 74.274 40.352C74.1735 40.5947 74.0033 40.8021 73.7849 40.948C73.5665 41.094 73.3097 41.1719 73.047 41.1719C72.6948 41.1719 72.3569 41.032 72.1079 40.7829C71.8588 40.5338 71.7189 40.196 71.7189 39.8438ZM25.3235 47.6491C25.3021 47.8222 25.315 47.9979 25.3616 48.166C25.4081 48.3341 25.4872 48.4914 25.5945 48.6289C25.7018 48.7664 25.8351 48.8814 25.9869 48.9674C26.1386 49.0534 26.3058 49.1086 26.479 49.13C26.6523 49.1538 26.8287 49.1426 26.9976 49.0971C27.1666 49.0516 27.3248 48.9728 27.4628 48.8652C27.6008 48.7576 27.7159 48.6235 27.8012 48.4708C27.8866 48.3181 27.9405 48.1498 27.9598 47.9759C28.2311 45.7185 29.3201 43.6388 31.021 42.1301C32.7219 40.6213 34.9167 39.7882 37.1903 39.7882C39.4639 39.7882 41.6587 40.6213 43.3596 42.1301C45.0604 43.6388 46.1495 45.7185 46.4207 47.9759C46.4606 48.297 46.6163 48.5926 46.8586 48.8071C47.101 49.0216 47.4133 49.1402 47.7369 49.1406C47.792 49.141 47.847 49.1375 47.9016 49.13C48.0747 49.1086 48.2419 49.0534 48.3937 48.9674C48.5454 48.8814 48.6788 48.7664 48.7861 48.6289C48.8933 48.4914 48.9725 48.3341 49.019 48.166C49.0655 47.9979 49.0784 47.8222 49.0571 47.6491C48.7017 44.7528 47.2991 42.0865 45.1137 40.1529C42.9283 38.2192 40.111 37.1518 37.1929 37.1518C34.2749 37.1518 31.4576 38.2192 29.2722 40.1529C27.0868 42.0865 25.6842 44.7528 25.3288 47.6491H25.3235Z" fill="white"/>
<path d="M78.1177 27.6781C77.491 26.5157 76.5559 25.5486 75.4153 24.8832C74.2747 24.2177 72.9726 23.8797 71.6523 23.9062H70.9551C65.966 17.8504 59.4409 13.247 52.0627 10.5777C44.6844 7.90851 36.7243 7.27162 29.0155 8.73373C27.8459 9.00146 26.8251 9.71109 26.1667 10.7142C25.5083 11.7173 25.2632 12.9361 25.4828 14.1157C25.7024 15.2953 26.3696 16.3443 27.3449 17.0433C28.3202 17.7422 29.5279 18.037 30.7155 17.8659C31.5297 17.7119 32.3637 17.6003 33.2045 17.5073V21.5156C25.8602 22.4897 19.1192 26.0964 14.2336 31.6657C9.34804 37.235 6.64998 44.3883 6.64062 51.7969H1.32812C0.975884 51.7969 0.638071 51.9368 0.388999 52.1859C0.139927 52.4349 0 52.7727 0 53.125L0 58.4375C0 58.7897 0.139927 59.1275 0.388999 59.3766C0.638071 59.6257 0.975884 59.7656 1.32812 59.7656H10.625C10.9772 59.7656 11.3151 59.6257 11.5641 59.3766C11.8132 59.1275 11.9531 58.7897 11.9531 58.4375C11.9531 58.0852 11.8132 57.7474 11.5641 57.4984C11.3151 57.2493 10.9772 57.1094 10.625 57.1094H2.65625V54.4531H14.4181C14.1624 54.9035 14.0585 55.4243 14.1219 55.9384C14.1853 56.4525 14.4126 56.9325 14.7701 57.3072L16.0265 58.646C16.4071 59.0334 16.6755 59.5168 16.803 60.0447C16.9305 60.5726 16.9123 61.1252 16.7503 61.6436L16.2363 63.3515C16.0564 63.9484 16.1106 64.5914 16.3879 65.1497C16.6652 65.7081 17.1448 66.1398 17.7291 66.3571L19.465 67.0344C19.9949 67.2264 20.4663 67.5518 20.8336 67.9792C21.201 68.4066 21.4519 68.9215 21.5621 69.4742L21.8716 71.2393C21.996 71.8378 22.3299 72.3722 22.8131 72.7467C23.2964 73.1211 23.8973 73.3109 24.5079 73.2819L26.3938 73.1823C26.9813 73.1416 27.5698 73.2469 28.1067 73.4888C28.6437 73.7307 29.1124 74.1018 29.4711 74.5689L30.5748 76.0431C30.9509 76.5186 31.4808 76.8484 32.0736 76.9758C32.6663 77.1033 33.285 77.0205 33.8234 76.7417L35.4716 75.8758C36.002 75.5994 36.5914 75.4552 37.1895 75.4552C37.7876 75.4552 38.3769 75.5994 38.9074 75.8758L40.5755 76.7523C41.117 77.0223 41.735 77.0974 42.3253 76.9648C42.9156 76.8322 43.4422 76.5001 43.8162 76.0245L44.9066 74.5636C45.2651 74.0968 45.7337 73.7261 46.2704 73.4846C46.8072 73.2431 47.3954 73.1384 47.9825 73.1797L49.8857 73.2793C50.4966 73.3089 51.0978 73.1178 51.5794 72.7408C52.061 72.3638 52.3908 71.8261 52.5087 71.226L52.8129 69.4795C52.9222 68.9257 53.1725 68.4095 53.5397 67.9807C53.9068 67.5519 54.3783 67.2251 54.9087 67.0318L56.6565 66.3518C57.2385 66.1335 57.7158 65.7021 57.9915 65.145C58.2673 64.5878 58.3208 63.9467 58.1413 63.3515L57.622 61.6396C57.4621 61.1197 57.4461 60.5662 57.5756 60.0379C57.7052 59.5096 57.9755 59.0263 58.3578 58.6394L59.6049 57.3112C59.9637 56.9364 60.192 56.4557 60.2556 55.9408C60.3193 55.4258 60.215 54.904 59.9582 54.4531H77.0312V57.1094H69.0625C68.7103 57.1094 68.3724 57.2493 68.1234 57.4984C67.8743 57.7474 67.7344 58.0852 67.7344 58.4375C67.7344 58.7897 67.8743 59.1275 68.1234 59.3766C68.3724 59.6257 68.7103 59.7656 69.0625 59.7656H78.3594C78.7116 59.7656 79.0494 59.6257 79.2985 59.3766C79.5476 59.1275 79.6875 58.7897 79.6875 58.4375V53.125C79.6875 52.7727 79.5476 52.4349 79.2985 52.1859C79.0494 51.9368 78.7116 51.7969 78.3594 51.7969H67.7344C67.7321 46.8204 66.5136 41.9199 64.185 37.5218C61.8564 33.1238 58.4881 29.3615 54.3734 26.5625H71.6523C72.4852 26.5371 73.309 26.7417 74.0332 27.1538C74.7574 27.5659 75.354 28.1696 75.7576 28.8987L81.932 40.8518C82.2221 41.4016 82.3625 42.0181 82.3392 42.6393C82.3159 43.2605 82.1297 43.8647 81.7992 44.3912C81.3759 45.0517 80.789 45.5915 80.0956 45.9583C79.4021 46.325 78.6256 46.5062 77.8414 46.4844H71.4797C71.1274 46.4844 70.7896 46.6243 70.5406 46.8734C70.2915 47.1224 70.1516 47.4602 70.1516 47.8125C70.1516 48.1647 70.2915 48.5025 70.5406 48.7516C70.7896 49.0007 71.1274 49.1406 71.4797 49.1406H77.8414C79.0808 49.1636 80.3051 48.8656 81.3952 48.2754C82.4853 47.6852 83.4041 46.8229 84.0623 45.7725C84.6353 44.859 84.9584 43.8111 84.9992 42.7336C85.04 41.6561 84.7971 40.5867 84.2948 39.6326L78.1177 27.6781ZM35.8594 15.9999C35.8399 15.7024 35.7233 15.4196 35.5276 15.1947C35.3318 14.9699 35.0676 14.8156 34.7756 14.7554C34.3779 14.7042 33.9747 14.715 33.5803 14.7873C32.4687 14.8896 31.3225 15.0437 30.2109 15.2575C29.7087 15.3135 29.2039 15.1766 28.7989 14.8745C28.3938 14.5724 28.1187 14.1277 28.0292 13.6303C27.9397 13.133 28.0426 12.6202 28.317 12.1959C28.5913 11.7716 29.0167 11.4673 29.507 11.3448C35.1303 10.2908 40.9111 10.4142 46.4844 11.7074V15.8047C44.3399 15.2471 42.1493 14.8857 39.9394 14.7249C39.7584 14.7174 39.5777 14.746 39.4079 14.8089C39.238 14.8718 39.0824 14.9678 38.9499 15.0914C38.8175 15.215 38.7109 15.3636 38.6363 15.5287C38.5618 15.6937 38.5207 15.872 38.5156 16.053V21.2965C38.0747 21.2779 37.6324 21.2633 37.1875 21.2633C36.7426 21.2633 36.3003 21.2779 35.8594 21.2965V15.9999ZM57.533 55.6378L56.4294 56.8132C55.7261 57.5437 55.2306 58.4486 54.9938 59.4345C54.7571 60.4205 54.7878 61.4517 55.0827 62.4219L55.5422 63.9412L53.9484 64.5615C52.9937 64.9195 52.1475 65.5177 51.4915 66.2982C50.8354 67.0788 50.3917 68.0153 50.2031 69.0173L49.9242 70.623L48.122 70.5234C47.0997 70.4678 46.0791 70.6615 45.1483 71.0879C44.2176 71.5143 43.4044 72.1606 42.7789 72.9712L41.7921 74.3869L40.1466 73.5197C39.2329 73.0458 38.2187 72.7985 37.1895 72.7985C36.1603 72.7985 35.1461 73.0458 34.2324 73.5197L32.6865 74.4281L31.5987 72.9672C30.977 72.1524 30.1642 71.5032 29.2321 71.077C28.3 70.6508 27.2774 70.4607 26.2544 70.5234L24.4601 70.619L24.1719 69.008C23.983 68.0064 23.5388 67.0704 22.8822 66.2907C22.2256 65.5111 21.3788 64.914 20.4239 64.5575L18.8302 63.9359L19.291 62.4219C19.5874 61.4536 19.62 60.4238 19.3853 59.4387C19.1507 58.4537 18.6573 57.5491 17.9563 56.8185L16.8433 55.6338L17.9058 54.5062L17.9563 54.4531H22.6538C22.9798 58.0851 24.6529 61.4637 27.3442 63.9244C30.0356 66.385 33.5502 67.7495 37.1968 67.7495C40.8434 67.7495 44.358 66.385 47.0494 63.9244C49.7407 61.4637 51.4138 58.0851 51.7398 54.4531H56.4347L57.533 55.6378ZM29.3396 54.4531C29.6518 56.3092 30.6115 57.9945 32.0485 59.21C33.4855 60.4255 35.3067 61.0925 37.1888 61.0925C39.0709 61.0925 40.8922 60.4255 42.3291 59.21C43.7661 57.9945 44.7259 56.3092 45.038 54.4531H49.0636C48.7282 57.3674 47.3329 60.0567 45.1432 62.0089C42.9535 63.961 40.1224 65.0398 37.1888 65.0398C34.2553 65.0398 31.4242 63.961 29.2345 62.0089C27.0448 60.0567 25.6494 57.3674 25.3141 54.4531H29.3396ZM32.0649 54.4531H42.3127C42.0228 55.5921 41.3617 56.602 40.4338 57.3233C39.5059 58.0447 38.3641 58.4362 37.1888 58.4362C36.0135 58.4362 34.8717 58.0447 33.9438 57.3233C33.0159 56.602 32.3548 55.5921 32.0649 54.4531ZM65.0781 51.7969H9.29688C9.29687 48.1342 10.0183 44.5074 11.4199 41.1236C12.8216 37.7397 14.876 34.6651 17.4659 32.0752C20.0557 29.4853 23.1304 27.4309 26.5142 26.0293C29.8981 24.6276 33.5249 23.9062 37.1875 23.9062C40.8501 23.9062 44.4769 24.6276 47.8608 26.0293C51.2446 27.4309 54.3193 29.4853 56.9092 32.0752C59.499 34.6651 61.5534 37.7397 62.9551 41.1236C64.3567 44.5074 65.0781 48.1342 65.0781 51.7969ZM41.1719 21.5156V17.5126C43.2929 17.7477 45.3861 18.188 47.422 18.8275C51.0417 19.951 54.4499 21.6672 57.5078 23.9062H49.6161C46.9323 22.7037 44.0877 21.8984 41.1719 21.5156ZM61.7485 23.9062C58.0701 20.6617 53.7849 18.179 49.1406 16.6015V12.4286C56.1547 14.5641 62.4754 18.5251 67.4555 23.9062H61.7485Z" fill="white"/>
<path d="M63.75 59.7656C64.4835 59.7656 65.0781 59.171 65.0781 58.4375C65.0781 57.704 64.4835 57.1094 63.75 57.1094C63.0165 57.1094 62.4219 57.704 62.4219 58.4375C62.4219 59.171 63.0165 59.7656 63.75 59.7656Z" fill="white"/>
</g>
<defs>
<clipPath id="clip0_76_121">
<rect width="85" height="85" fill="white"/>
</clipPath>
</defs>
</svg>
