<svg width="90" height="90" viewBox="0 0 90 90" fill="none" xmlns="http://www.w3.org/2000/svg">
<path d="M68.625 5.625H10.125C9.82663 5.625 9.54048 5.74353 9.32951 5.95451C9.11853 6.16548 9 6.45163 9 6.75V74.25C9 79.8322 13.5428 84.375 19.125 84.375H70.875C76.4572 84.375 81 79.8322 81 74.25C81 68.6678 76.4572 64.125 70.875 64.125H69.75V6.75C69.75 6.45163 69.6315 6.16548 69.4205 5.95451C69.2095 5.74353 68.9234 5.625 68.625 5.625ZM60.75 7.875H67.5V14.625H60.75V7.875ZM60.75 16.875H67.5V34.875H60.75V16.875ZM60.75 37.125H67.5V55.125H60.75V37.125ZM60.75 57.375H67.5V64.125H60.75V57.375ZM50.625 7.875H58.5V24.75H50.625V7.875ZM50.625 27H58.5V45H50.625V27ZM50.625 47.25H58.5V64.125H50.625V47.25ZM40.5 7.875H48.375V14.625H40.5V7.875ZM40.5 16.875H48.375V34.875H40.5V16.875ZM40.5 37.125H48.375V55.125H40.5V37.125ZM40.5 57.375H48.375V64.125H40.5V57.375ZM30.375 7.875H38.25V24.75H30.375V7.875ZM30.375 27H38.25V45H30.375V27ZM30.375 47.25H38.25V64.125H30.375V47.25ZM20.25 7.875H28.125V14.625H20.25V7.875ZM20.25 16.875H28.125V34.875H20.25V16.875ZM20.25 37.125H28.125V55.125H20.25V37.125ZM20.25 57.375H28.125V64.125H20.25V57.375ZM11.25 7.875H18V24.75H11.25V7.875ZM11.25 27H18V45H11.25V27ZM19.125 82.125C14.7825 82.125 11.25 78.5925 11.25 74.25V47.25H18V65.25C18 65.5484 18.1185 65.8345 18.3295 66.0455C18.5405 66.2565 18.8266 66.375 19.125 66.375C23.4675 66.375 27 69.9075 27 74.25C27 78.5925 23.4675 82.125 19.125 82.125ZM70.875 66.375C75.2175 66.375 78.75 69.9075 78.75 74.25C78.75 78.5925 75.2175 82.125 70.875 82.125H25.4812C26.6581 81.1774 27.6076 79.9782 28.26 78.6154C28.9123 77.2526 29.251 75.7609 29.251 74.25C29.251 72.7391 28.9123 71.2474 28.26 69.8846C27.6076 68.5218 26.6581 67.3226 25.4812 66.375H70.875Z" fill="white"/>
</svg>
