<svg width="85" height="85" viewBox="0 0 85 85" fill="none" xmlns="http://www.w3.org/2000/svg">
<path d="M63.7503 28.3333H21.2503C17.3439 28.3333 14.167 25.1564 14.167 21.25V10.625C14.167 6.7185 17.3439 3.54163 21.2503 3.54163H63.7503C67.6568 3.54163 70.8337 6.7185 70.8337 10.625V21.25C70.8337 25.1564 67.6568 28.3333 63.7503 28.3333ZM21.2503 7.08329C19.2971 7.08329 17.7087 8.67173 17.7087 10.625V21.25C17.7087 23.2032 19.2971 24.7916 21.2503 24.7916H63.7503C65.7036 24.7916 67.292 23.2032 67.292 21.25V10.625C67.292 8.67173 65.7036 7.08329 63.7503 7.08329H21.2503Z" fill="white"/>
<path d="M69.0622 14.1666H74.3747V17.7083H69.0622V14.1666ZM46.0413 53.125H42.4997V37.1875C42.4997 36.2117 41.7046 35.4166 40.7288 35.4166H14.1663C9.66488 35.4166 7.08301 32.8348 7.08301 28.3333V21.25C7.08301 16.7485 9.66488 14.1666 14.1663 14.1666H15.9372V17.7083H14.1663C11.6181 17.7083 10.6247 18.7017 10.6247 21.25V28.3333C10.6247 30.8815 11.6181 31.875 14.1663 31.875H40.7288C43.6578 31.875 46.0413 34.2585 46.0413 37.1875V53.125Z" fill="white"/>
<path d="M46.0417 85H42.5C39.571 85 37.1875 82.6164 37.1875 79.6875V60.2083C37.1875 54.6638 39.8349 51.3541 44.2708 51.3541C48.7068 51.3541 51.3542 54.6638 51.3542 60.2083V79.6875C51.3542 82.6164 48.9706 85 46.0417 85ZM44.2708 54.8958C43.3943 54.8958 40.7292 54.8958 40.7292 60.2083V79.6875C40.7292 80.6632 41.5243 81.4583 42.5 81.4583H46.0417C47.0174 81.4583 47.8125 80.6632 47.8125 79.6875V60.2083C47.8125 54.8958 45.1474 54.8958 44.2708 54.8958Z" fill="white"/>
</svg>
