<svg width="85" height="85" viewBox="0 0 85 85" fill="none" xmlns="http://www.w3.org/2000/svg">
<path d="M42.5098 45.1562C35.9191 45.1562 30.5566 50.518 30.5566 57.1094C31.2132 72.9668 53.8088 72.9622 54.463 57.1093C54.4629 50.518 49.1005 45.1562 42.5098 45.1562ZM42.5098 66.4062C37.3834 66.4062 33.2129 62.2351 33.2129 57.1094C33.6806 44.7928 51.3409 44.7962 51.8066 57.1095C51.8066 62.2351 47.6361 66.4062 42.5098 66.4062Z" fill="white"/>
<path d="M78.3691 55.7812H76.9068C76.2897 52.754 73.6071 50.4687 70.4004 50.4687H68.3545C66.8946 48.8428 64.7838 47.8125 62.4316 47.8125H59.7754V42.5C68.5665 42.1868 68.56 29.5288 59.7754 29.2187C60.1974 22.341 56.5913 15.8873 50.8381 12.7758C53.211 9.88392 50.9088 5.20322 47.1581 5.31258C47.1582 5.3125 43.8379 5.3125 43.8379 5.3125V3.98438C43.8379 3.25092 43.2432 2.65625 42.5098 2.65625C41.7763 2.65625 41.1816 3.25092 41.1816 3.98438V5.3125H37.8613C34.1092 5.20136 31.8099 9.88774 34.1849 12.7736C28.4298 15.8842 24.822 22.34 25.2441 29.2188C16.453 29.5319 16.4597 42.1899 25.2441 42.5V47.8125H22.5879C20.2357 47.8125 18.1249 48.8428 16.6651 50.4688H14.6191C11.4125 50.4688 8.72988 52.7541 8.11275 55.7812H6.65039C5.91693 55.7812 5.32227 56.3753 5.32227 57.1094C5.32227 57.8435 5.91693 58.4375 6.65039 58.4375H8.11527C8.66504 61.4341 11.558 63.8152 14.6192 63.7499C14.6191 63.75 16.6651 63.75 16.6651 63.75C18.1249 65.3759 20.2357 66.4062 22.5879 66.4062H25.2441V71.7188H21.2598C17.2677 71.6071 14.5665 76.3264 16.6862 79.6875H9.30664C7.58586 79.7095 7.54078 82.3126 9.30672 82.3438C9.30664 82.3438 75.7129 82.3438 75.7129 82.3438C77.4338 82.3215 77.4788 79.7187 75.7128 79.6875C75.7129 79.6875 68.3334 79.6875 68.3334 79.6875C70.4527 76.3254 67.7521 71.6078 63.7597 71.7188C63.7598 71.7187 59.7754 71.7188 59.7754 71.7188V66.4062H62.4316C64.7838 66.4062 66.8946 65.3759 68.3545 63.75H70.4004C73.4477 63.8149 76.3573 61.4428 76.9044 58.4375H78.3691C80.1151 58.4084 80.1146 55.8101 78.3691 55.7812ZM15.084 61.0937C9.2007 61.3725 9.20297 52.8482 15.084 53.125C14.3819 55.3774 14.382 58.8336 15.084 61.0937ZM37.8613 7.96874H47.1582C49.0855 7.90616 49.8897 10.63 48.2536 11.6281C44.7026 10.3088 40.3516 10.3041 36.7971 11.6166C35.1245 10.6025 35.9111 7.93753 37.8613 7.96874ZM27.9004 27.8906C28.9212 7.68388 57.7614 8.92884 57.1191 29.2187H27.9004V27.8906ZM22.5879 63.75C19.6586 63.75 17.2754 61.3674 17.2754 58.4375V55.7812C17.2754 52.8513 19.6586 50.4687 22.5879 50.4687H25.2441V63.75H22.5879ZM63.7598 74.375C67.2493 74.4618 67.2728 79.5938 63.7597 79.6875C63.7598 79.6875 21.2598 79.6875 21.2598 79.6875C19.7948 79.6875 18.6035 78.4955 18.6035 77.0312C18.6035 75.5669 19.7948 74.375 21.2598 74.375H63.7598ZM27.9004 71.7187V42.5H57.1191V71.7187H27.9004ZM59.7753 39.8437C59.7754 39.8437 25.2441 39.8437 25.2441 39.8437C20.0005 39.71 19.9825 32.0138 25.2443 31.875C25.2441 31.875 59.7754 31.875 59.7754 31.875C65.0191 32.0087 65.037 39.705 59.7753 39.8437ZM67.7441 58.4375C67.7441 61.3674 65.3609 63.75 62.4316 63.75H59.7754V50.4687H62.4316C65.3609 50.4687 67.7441 52.8513 67.7441 55.7812V58.4375ZM73.2265 59.9225C72.3495 60.8095 71.1468 61.168 69.9355 61.0937C70.6377 58.8413 70.6377 55.3852 69.9355 53.125C73.6439 52.7501 75.8736 57.2675 73.2265 59.9225Z" fill="white"/>
</svg>
