<svg width="85" height="85" viewBox="0 0 85 85" fill="none" xmlns="http://www.w3.org/2000/svg">
<path d="M76.2167 56.3833L70.55 55.25V53.2667C72.0611 52.3222 73.2889 51.0472 74.2333 49.4417C75.1778 47.8361 75.65 46.0889 75.65 44.2V36.8333C75.65 34 74.6583 31.5917 72.675 29.6083C70.6917 27.625 68.2833 26.6333 65.45 26.6333H64.0333C61.0111 26.6333 58.4611 27.7667 56.3833 30.0333C55.4389 27.0111 53.6917 24.5083 51.1417 22.525C48.5917 20.5417 45.7111 19.55 42.5 19.55C39.2889 19.55 36.4083 20.5417 33.8583 22.525C31.3083 24.5083 29.5611 27.0111 28.6167 30.0333C26.5389 27.7667 23.9889 26.6333 20.9667 26.6333H19.55C16.7167 26.6333 14.3083 27.625 12.325 29.6083C10.3417 31.5917 9.35 34 9.35 36.8333V44.2C9.35 46.0889 9.82222 47.8361 10.7667 49.4417C11.7111 51.0472 12.9389 52.3222 14.45 53.2667V55.25L8.78333 56.3833C6.13889 57.1389 4.01389 58.5556 2.40833 60.6333C0.802778 62.7111 0 65.0722 0 67.7167V72.8167C0 73.1944 0.141667 73.5722 0.425 73.95C0.708333 74.3278 1.13333 74.5167 1.7 74.5167H15.0167V76.5V81.6H5.1C4.53333 81.6 4.10833 81.7889 3.825 82.1667C3.54167 82.5444 3.4 82.9694 3.4 83.4417C3.4 83.9139 3.54167 84.2917 3.825 84.575C4.10833 84.8583 4.53333 85 5.1 85H79.9C80.4667 85 80.8917 84.8583 81.175 84.575C81.4583 84.2917 81.6 83.9139 81.6 83.4417C81.6 82.9694 81.4583 82.5444 81.175 82.1667C80.8917 81.7889 80.4667 81.6 79.9 81.6H69.9833V76.5V74.5167H83.3C83.8667 74.5167 84.2917 74.3278 84.575 73.95C84.8583 73.5722 85 73.1944 85 72.8167V67.7167C85 65.0722 84.1972 62.7111 82.5917 60.6333C80.9861 58.5556 78.8611 57.1389 76.2167 56.3833ZM57.2333 36.8333C57.2333 34.9444 57.8944 33.2917 59.2167 31.875C60.5389 30.4583 62.1444 29.75 64.0333 29.75H65.45C67.3389 29.75 68.9444 30.4583 70.2667 31.875C71.5889 33.2917 72.25 34.9444 72.25 36.8333V37.4C69.9833 37.4 67.8111 36.7389 65.7333 35.4167C65.1667 34.85 64.5056 34.85 63.75 35.4167C61.6722 36.7389 59.5 37.4 57.2333 37.4V36.8333ZM57.2333 42.7833V40.8C59.8778 40.6111 62.4278 39.8556 64.8833 38.5333C67.15 39.8556 69.6056 40.6111 72.25 40.8V44.2C72.25 46.2778 71.5889 47.9778 70.2667 49.3C68.9444 50.6222 67.3389 51.2833 65.45 51.2833H64.0333C62.1444 51.2833 60.5389 50.6222 59.2167 49.3C57.8944 47.9778 57.2333 46.2778 57.2333 44.2V42.7833ZM60.35 62.05C59.5944 61.6722 58.8389 61.4833 58.0833 61.4833L52.9833 60.0667L59.5 58.3667L60.35 62.05ZM58.9333 53.2667V55.25L53.2667 56.3833C52.1333 56.7611 51 57.2333 49.8667 57.8V55.5333C52.3222 54.0222 54.1167 52.1333 55.25 49.8667C56.1944 51.1889 57.4222 52.3222 58.9333 53.2667ZM53.8333 42.7833C53.8333 45.9944 52.7 48.6861 50.4333 50.8583C48.1667 53.0306 45.5222 54.1167 42.5 54.1167C39.4778 54.1167 36.8333 53.0306 34.5667 50.8583C32.3 48.6861 31.1667 45.9944 31.1667 42.7833V37.9667H33.15C37.8722 37.9667 42.1222 36.55 45.9 33.7167L46.1833 34.2833C46.9389 35.4167 47.9306 36.3139 49.1583 36.975C50.3861 37.6361 51.6611 37.9667 52.9833 37.9667H53.8333V42.7833ZM31.1667 34.2833C31.1667 31.0722 32.3 28.3806 34.5667 26.2083C36.8333 24.0361 39.4778 22.95 42.5 22.95C45.5222 22.95 48.1667 24.0361 50.4333 26.2083C52.7 28.3806 53.8333 31.0722 53.8333 34.2833V34.85H52.9833C51.2833 34.85 49.9611 34.0944 49.0167 32.5833L48.45 31.7333L49.8667 30.0333C50.0556 29.6556 50.15 29.2306 50.15 28.7583C50.15 28.2861 49.9611 27.9083 49.5833 27.625C49.2056 27.3417 48.7806 27.2472 48.3083 27.3417C47.8361 27.4361 47.4111 27.6722 47.0333 28.05C45.3333 30.1278 43.2556 31.7806 40.8 33.0083C38.3444 34.2361 35.7944 34.85 33.15 34.85H31.1667V34.2833ZM29.75 49.8667C30.8833 52.1333 32.6778 54.0222 35.1333 55.5333V57.8C34 57.2333 32.8667 56.7611 31.7333 56.3833L26.0667 55.25V53.2667C27.5778 52.3222 28.8056 51.1889 29.75 49.8667ZM32.0167 60.0667L26.9167 61.4833L24.65 62.05L25.5 58.3667L32.0167 60.0667ZM12.75 36.8333C12.75 34.9444 13.4111 33.2917 14.7333 31.875C16.0556 30.4583 17.6611 29.75 19.55 29.75H20.9667C22.8556 29.75 24.4611 30.4583 25.7833 31.875C27.1056 33.2917 27.7667 34.9444 27.7667 36.8333V37.4C25.5 37.4 23.3278 36.7389 21.25 35.4167C20.4944 34.85 19.8333 34.85 19.2667 35.4167C17.1889 36.7389 15.0167 37.4 12.75 37.4V36.8333ZM12.75 44.2V40.8C15.3944 40.6111 17.85 39.8556 20.1167 38.5333C22.5722 39.8556 25.1222 40.6111 27.7667 40.8V44.2C27.7667 46.2778 27.1056 47.9778 25.7833 49.3C24.4611 50.6222 22.8556 51.2833 20.9667 51.2833H19.55C17.6611 51.2833 16.0556 50.6222 14.7333 49.3C13.4111 47.9778 12.75 46.2778 12.75 44.2ZM15.8667 71.1167H3.4V67.7167C3.4 65.8278 3.96667 64.1278 5.1 62.6167C6.23333 61.1056 7.74444 60.1611 9.63333 59.7833L15.0167 58.3667L17.2833 68C16.7167 68.9444 16.2444 69.9833 15.8667 71.1167ZM17.85 54.4C18.4167 54.5889 18.9833 54.6833 19.55 54.6833H20.9667C21.5333 54.6833 22.1 54.5889 22.6667 54.4V56.1L20.6833 64.3167L19.8333 64.8833L17.85 56.3833V54.4ZM18.1333 81.6V76.5C18.1333 74.4222 18.6056 72.5333 19.55 70.8333C20.4944 69.1333 21.7222 67.7167 23.2333 66.5833L38.5333 81.6H18.1333ZM26.35 64.8833C26.7278 64.6944 27.1056 64.6 27.4833 64.6L35.4167 62.6167L39.3833 77.9167L26.35 64.8833ZM38.25 60.35V56.95C39.7611 57.3278 41.225 57.5167 42.6417 57.5167C44.0583 57.5167 45.4278 57.3278 46.75 56.95V60.35L42.5 76.7833L38.25 60.35ZM49.5833 62.6167L57.5167 64.6L58.65 64.8833L45.6167 77.9167L49.5833 62.6167ZM66.8667 81.6H46.4667L61.7667 66.5833C63.2778 67.7167 64.5056 69.1333 65.45 70.8333C66.3944 72.5333 66.8667 74.4222 66.8667 76.5V81.6ZM67.15 56.3833L65.1667 64.8833L64.3167 64.3167L62.3333 56.1V54.4C62.9 54.5889 63.4667 54.6833 64.0333 54.6833H65.45C66.0167 54.6833 66.5833 54.5889 67.15 54.4V56.3833ZM81.6 71.1167H69.1333C68.7556 69.9833 68.2833 68.9444 67.7167 68L69.9833 58.3667L75.3667 59.7833C77.2556 60.1611 78.7667 61.1056 79.9 62.6167C81.0333 64.1278 81.6 65.8278 81.6 67.7167V71.1167ZM42.5 5.96046e-07C42.1222 5.96046e-07 41.7444 0.141667 41.3667 0.425001C40.9889 0.708334 40.8 1.13333 40.8 1.7V8.78333C40.8 9.16111 40.9889 9.53889 41.3667 9.91667C41.7444 10.2944 42.1222 10.4833 42.5 10.4833C42.8778 10.4833 43.2556 10.2944 43.6333 9.91667C44.0111 9.53889 44.2 9.16111 44.2 8.78333V1.7C44.2 1.13333 44.0111 0.708334 43.6333 0.425001C43.2556 0.141667 42.8778 5.96046e-07 42.5 5.96046e-07ZM43.6333 13.3167C43.2556 12.9389 42.8778 12.75 42.5 12.75C42.1222 12.75 41.7444 12.9389 41.3667 13.3167C40.9889 13.6944 40.8 14.1194 40.8 14.5917C40.8 15.0639 40.9889 15.4417 41.3667 15.725C41.7444 16.0083 42.1222 16.15 42.5 16.15C42.8778 16.15 43.2556 16.0083 43.6333 15.725C44.0111 15.4417 44.2 15.0639 44.2 14.5917C44.2 14.1194 44.0111 13.6944 43.6333 13.3167ZM31.45 13.8833L25.2167 7.65C25.0278 7.27222 24.6972 7.08333 24.225 7.08333C23.7528 7.08333 23.3278 7.27222 22.95 7.65C22.5722 8.02778 22.3833 8.40556 22.3833 8.78333C22.3833 9.16111 22.5722 9.53889 22.95 9.91667L29.1833 16.15C29.3722 16.5278 29.7028 16.7167 30.175 16.7167C30.6472 16.7167 31.0722 16.5278 31.45 16.15C31.8278 15.7722 32.0167 15.3472 32.0167 14.875C32.0167 14.4028 31.8278 14.0722 31.45 13.8833ZM62.3333 7.36667C61.9556 6.98889 61.5306 6.8 61.0583 6.8C60.5861 6.8 60.2556 6.98889 60.0667 7.36667L53.55 13.8833C53.1722 14.2611 52.9833 14.6389 52.9833 15.0167C52.9833 15.3944 53.125 15.7722 53.4083 16.15C53.6917 16.5278 54.0694 16.7167 54.5417 16.7167C55.0139 16.7167 55.4389 16.5278 55.8167 16.15L62.3333 9.63333C62.7111 9.25556 62.9 8.87778 62.9 8.5C62.9 8.12222 62.7111 7.74444 62.3333 7.36667Z" fill="white"/>
</svg>
